<?xml version="1.0" encoding="utf-8"?>
<!-- Generator: Adobe Illustrator 24.0.0, SVG Export Plug-In . SVG Version: 6.00 Build 0)  -->
<svg version="1.1"
	 id="svg2" xmlns:cc="http://creativecommons.org/ns#" xmlns:dc="http://purl.org/dc/elements/1.1/" xmlns:rdf="http://www.w3.org/1999/02/22-rdf-syntax-ns#" xmlns:svg="http://www.w3.org/2000/svg"
	 xmlns="http://www.w3.org/2000/svg" xmlns:xlink="http://www.w3.org/1999/xlink" x="0px" y="0px" viewBox="0 0 200 200"
	 style="enable-background:new 0 0 200 200;" xml:space="preserve">
<style type="text/css">
	.st0{fill-rule:evenodd;clip-rule:evenodd;}
	.st1{fill-rule:evenodd;clip-rule:evenodd;fill:#FFFFFF;}
</style>
<path class="st0" d="M104.6,200h-9.3C42.7,200,0,157.3,0,104.6v-9.3C0,42.7,42.7,0,95.4,0h9.3C157.3,0,200,42.7,200,95.4v9.3
	C200,157.3,157.3,200,104.6,200z"/>
<g id="layer2">
	<path id="path2471" class="st1" d="M30.5,151.5l0.7,1.2v0.8l0.4,0.7l0.7,0.2l0.5-0.2l1-0.2l0.5,0.2l0.4-0.2l0.2-0.3l0.4-0.2
		l0.7,0.2l0.3-0.2l1.2-1l0.7,0.2l0.4,0.2l1.1-0.6l0.5,0.3l0.8-0.3l0.4,0.1l0.7-0.3l0.1-0.2l0.7-0.4l0.1-0.5l0.8,0.2l0.4-0.1l0.1-0.4
		l0.6-0.4l0.3-0.9l0.2-0.3l0.1-1.1l0.3-0.2l0.1-0.3l0.1-0.6l-0.2-0.7l-0.2-0.2l-0.3-0.3l-0.5-0.8v-0.2l0.6-0.6l0.6-0.2l0.4-0.2
		l0.3-0.2l-0.1-0.6l0.1-0.4l1-0.3l3.4,0.1l0.8,0.9l2.9,1.5l0.7,1.8l-0.1,0.3l0.6-0.2l0.6-0.2l0.2-0.2l0.4-0.2l0.4,0l0.3,0.2l1.2-0.1
		l0.7,0.8l0.9,0.6l0.3,0.5l0.7-0.1l1.6-0.1l0.8,0.3l0.1,0.2l0.5,1l0.6,0.1l1,1.2l1.3,1.4l0.9,1.6l0.2,0.6l-0.3,0.8l0,0.2l0.8,0.2
		l0.1,0.2l0.2,0.6l0.3,0.5l-0.1,0.4l0.3,0.7l0.3,0.1l0.1,0.4l-0.2,0.3l0,0.4l0,0.4l-0.3,0.4l-0.1,0.2l-0.5,0.4l-0.2,0.4l0.1,0.3
		l0.3,0.5l0.9,0.1l0.3,0.4l-0.3,0.4l0.1,0.3l0.6,0.8l0.1,1.2l0.6-0.1l0.6,0.4l1,0.7l0.2,0.4l0.2,1l0.7,0.1l0.6,0.1l0.3-0.4l1.2-0.2
		l0.1-0.8l-0.3,0l-0.2-0.4l0.2-0.3l0-0.9l0.7-0.1l0.1-0.5l0.8-0.4l0.1-1.4l0.3-0.4l0.2-0.4l0.9-0.4l0.7,0.1l0.6-0.1l0.6,0.2l0.2,0
		l0.3-0.3h0.3l0.1,0.2l0.2-0.1l0.6,0.5l0.5,0.2l0.5-0.2h0.2L85,160l0.3-0.2l0-0.4l-0.2-0.2l0.1-0.3l-0.1-0.3l0.6-0.7l2-0.7l0-0.6
		l-0.1-0.4l0.3-0.1l0.1-0.8l0.3-0.3l0.3-0.2v-0.4l-0.3-0.1V154l0.2-0.3l-0.8-1.4l-0.9-0.1l-0.1-0.1l0.1-0.6l0.4-0.5l0.1-1.1l-0.5,0
		l-0.6-0.2l-1.2,0.1l-0.3-0.3l0.4-0.1l0.6-0.2l0-0.1l-0.7-0.4l-0.2-0.1l-1-0.3l-0.9-0.1l-1.6,0.2l-1,0.1l-1.8,0.1l0.5-0.3l0.3-0.2
		l-0.2-0.5l-0.1-0.6l0.5,0.7l0.7-0.1l0.9-0.1l0.3-0.4l0.5-0.2l-0.1,0.3l0.3,0.1l0.4,0.3l0.5-0.1l0.7-0.4l0.4-0.1l0.7,0.3l0.6,0
		l0.2-0.2l0.3-0.4l0.6-0.3l0.2-0.1l-0.1-0.3l-0.5-0.1l-0.3-0.7l0.1-0.4l-0.1-0.9l0.7-0.4l0.5-0.3l0.8-0.3l-0.1-0.3l-0.2-0.2v-0.2
		l0.4-0.4l0.2-0.3l1.2-0.4l0.3,0l0.4,0.4l0.2-0.1l0.1-0.3l-0.3-0.9l-0.4-0.2l-0.9,0.1l-0.3,0.3l-0.3-0.5l-0.4-0.4l-0.2-0.4l-0.3-0.1
		l-1.3-0.6l-0.2-0.3l0.5,0l0.4,0l0.9,0.4l1,0.4l0.4,0.1l0.5-0.2l0.7-0.6l0.3-0.5l-0.1-0.5l-0.3-0.2l-0.4-0.2l-0.2-0.6l0-1.3
		l-0.5-0.5l-0.8-0.7l-0.4-0.9l-0.2-0.2l-0.5-0.1l-0.3-0.2l-0.5-0.2v-0.1l0.9,0.1l0.3,0l0.3,0.2l0.4,0l0.4,0.3l0.3-0.5l0.2,0.5v0.5
		l0.6,0.6l0,0.7l0.4-0.5l0.4-0.7l0.6,0l0.1-0.1l0.3-0.1l0.3-0.5l-0.1-0.3l-0.1-0.2l0.5,0.1l0.1,0.4h0.1l0.1-0.3l-0.1-0.7l0.1-0.4
		l-0.1-0.4l-0.6-0.4l0.6,0.1l0.4-0.2l0.4-0.1l0.1-0.4l-0.3-0.6l-0.1-0.3l0.2-0.1l0.3-0.6l0-0.2l-0.4-0.2l-0.4,0.2l-0.3,0.3l-0.1-0.3
		l-0.3-0.4l0-0.3l-0.4-0.1l-0.5-0.1l-0.6-0.1L90,127l1,0l0.5,0.1l0.3-0.2v-0.1l0.4,0.1l0.3,0.4l0.2,0.4v0.2l0.4-0.1l0.3-0.5l0.1-0.3
		l0.4,0l0.4-0.4L94,126l0.1-0.1l0.2,0.7l-0.1,0.4l-0.6,0.2l-0.2,0.3l0.3,0.1l0.4,0.5l-0.1,0.4l-0.3,0.3l0.1,0.8l0.1,0.3h0.4l0.4,0.4
		l0.3,0l0.1,0.1l0.8-0.1l0.4-0.4l0-0.4l0.9-0.3l-0.2-0.5l0.5,0.1l0.4-0.3l0.1-0.2l0.1,0.3l0.2-0.1l-0.2,0.3l-0.2,0.4l0.1,0.3
		l-0.9,0.1l-0.4,0.2l-0.1,0.2l-0.8,0.5l-1.3,0.1l-0.2-0.2l-1.1,0.3l-0.6,0.2l-0.1,0.1l0,0.7v0.9l-0.1,0.3l-0.7,0.4v0.2l0.4,2.7
		l0.4-0.1l0.3,0.6l-0.6,1l-0.1,0.9L92,140l0.3,0.3l0.2-0.1L93,140l0.8,0.1l0.3-0.4l0-0.4l0.2-0.1l-0.1-0.7l0.2-0.1l0.5,1.3l-0.8,1.1
		l-0.3-0.3l-1,0.1l-0.3,0.3l0.1,1l0.4,0.9l0.4-0.1l0.4-0.4l0.7-0.3l0.1-0.3l1-0.4l0.4-0.1l-0.1-1.2l0.6-0.3l0.2-0.4l0.1-1.3l0.3-1.3
		l0-0.4l0.9-1l0.3-0.5l0.7-0.6l0.9-0.3h0.8l0.4,0.2l0.3,0.7l0.2,0.6l0.3,0l0.3-0.2l0.4-0.9l0.5-0.5l0.3-0.7l0.9-0.7l0.8-0.5l0.3-0.4
		l0.6-0.3l0.2-0.7l1-0.5l1.3-0.3l1.1,0.1l0.2,0.3l0.4,0.3h0.2l0.4,0.2l0.3,0l0.3,0.5l0.2,0.2l0.3,0.6l0.3,0.2l0.6-0.1l0.2-1.2
		l0.2-0.4l1-0.4l0.3-0.4l-0.2-0.3l-0.2-0.4l0-0.5l1.2-0.7l0.5-0.2l0-0.8l-1-0.4l-0.5-1l0.1-0.4l-0.1-0.8l0.2-0.4l0-1l0.8-0.7v-0.3
		l1.3-0.6l0.7-0.1l0-0.2l-0.2-1.3l-0.3-0.3l-0.6-0.6l-0.3-0.6l0-1.1l0.3-0.3l1.2-0.4l2.9-0.9l1.9-0.2l0.7,0l0.1,0.1l0.6,1.4l0.1,0.7
		l-0.1,0.8l0.2,0.6l0.3,0.3l0.6,0l0.3-0.7l0.1-0.2h0.8l0.5-0.1l0.8-0.9l1-0.6l0.4-0.6v-0.4l-0.4-0.6l-0.6-0.7l-0.2-0.8l0.1-1
		l0.2-0.8l-0.1-0.4l-0.6-0.9l-0.1-0.3l0.5,0.6l0.5,0.6l0.4,0.9l0.1,1l0.1,1l0.2,0.5l0.4,1l-0.2,0.5l-0.1,0.2l-0.3,0.3l-0.5,0.2
		l-0.1,0.2l0.1,0.5l0.4,0.2l1.1,0l0.4-0.4l0.6-0.1l0.5,0.7l0.4-0.1l0.2-0.6l0.6-0.4l0.4-0.1l0.7,0.2l1.6,0.7l1.1,0.5l0.5,0l1.3-0.1
		l1-0.4l1.3-0.5l0.5-0.7h0.3l0.6,0.1l0.6,0.3l0.4,0l0.2-0.1l0.2-0.5l0.4-0.3l0.4-0.2l0.3-0.2l0.5-0.4l0.6-0.6v-0.3l0.6-0.6l0.2-0.3
		l1.9-0.7l1.1-0.2l1.5,0l1.2,0.3l0.7,0.4l0.3,0.1l1.4-0.2l0.7,0.5l2-0.5h0.9l1.7,0.6l2.2,1.1l1.6,1.2l1.3,1.2l1,1.1l0.3,0.6
		l-0.1,0.1l-0.3,0.2l-0.2,0.2l0.1,0.5l-0.1,0.1l0.2,0.3l0.3-0.1l0.4-0.4l0.9-0.3l1,0.1l0.5-0.2l0.1-0.3l-0.7-1l-0.4-0.6l0.2-0.4
		l1-0.6l1.2-0.4h0.7l0.2-0.6l-0.3-0.6l-0.3-0.4l-0.1-0.6l-1.3,0.4l-1.5,0.4h-0.5l0.4-0.6l0.3-0.3l-0.1-0.4l-0.6-0.2l-2.4-0.1
		l-0.6-0.3l0.4-0.3l1.9-0.8l1.5-0.2h0.6v-0.2l-0.7-0.3l0.2-0.5l-0.5-0.3l0.2-0.4l-0.3-0.6l-0.4-0.2l-1.7,0.4l-0.5,0.3l-0.1,0.7
		l-0.2,0.3l-0.6,0.3l-1.4,0.1l-0.7,0l-0.3,0.1l-1.1-0.3l-0.5-1l0.6,0.8l0.6,0.2l0.4-0.2v-0.7l0.4-0.4l0.6,0.7l1,0l0.3-0.2v-0.3
		l-0.3-0.3l0.1-0.3l0.4,0l0.8-0.3l0.3-0.1l0.1-0.7l0.3,0.5l0.9-0.3l0.5-0.3l0.4-0.9l0.2-0.4l-0.4-0.8l-0.2-0.6l0-0.9l0.3-0.6
		l0.7-0.4l0.3-0.7l-0.4-0.5l-0.3-0.1l0.3-0.4l-0.3-0.9l-0.3-1.4l-0.3-0.6h-0.5l-0.4,0.8l-0.4,0.3l-0.5,0.1l-0.2-0.7l0.4-0.6l0.9-1
		l0.6-0.4l0.1-1l-0.2-1.2v-0.5l0.4-0.2l0.8,0.3l0.8,0l0.3-0.4l0.5-0.3l0.6-0.2l0.1-0.5l-0.2-0.3l-0.5-0.2l-0.5,0.4l-0.7,0.4
		l-0.2-0.3l0.2-0.7l-0.2-0.7l-0.4-0.1l0.4-0.6l-0.2-0.1l-0.1-1.2l-0.1-0.4l-0.5-0.1l-0.9,0.1l-1,0.3l-0.2-0.5l-0.5-1.3l-0.1-0.1
		l-0.8,0l-0.7,0.3l-0.6,0.4l-0.2-0.1l0.2-0.4l0.6-0.3l0.1-0.4l-0.3-1.3l-0.5-0.7l-0.3-0.4l-0.5-1.8L162,83l0.3-0.1l-0.1-0.8l-0.7,0
		l0,0.7l0,0.4l-0.2,0.1L161,83l-0.1-0.6l-0.1-0.3l-0.5,0l-0.7,0.4l-0.2-0.1l-0.3-0.4v-0.9l0.3-0.4l0.1-0.5l0-0.9l0.3-1.4l0-1.5
		l0.3-0.4l0.1-0.7l0-0.3l-0.3-0.3l-0.6-0.2l-0.8,0.1l-0.3-0.7l-0.7-0.7l-0.1-1.4l-0.5-0.7l-0.4-1.1l0.1-0.9l0.1-0.7l-0.6-2.2
		l-1.4-0.8l-0.4-0.4l0-0.4l0.5-0.9l0.2-1.1l-0.1-0.9l-0.5-0.6l-0.3-1.5l-0.3-0.4l-0.4-0.2l-0.2-0.9l0.4-0.4v-0.5l-0.5-0.1l0.3-0.9
		l0.3-0.6l-0.1-0.5l-0.3-0.3l-0.3-0.3l-0.6-0.1l-0.8-0.1l-0.8,0.4l0.3,1.3l-0.5,0.1l-1-0.1l-0.6-1l-0.7-0.3l-0.3-0.2l-0.5-1.1
		l-0.3-0.3l-0.9,0l-0.7,0l-0.7-0.8l-0.6-0.1l-0.4-0.2v-0.6l1.1-0.2l0.3-0.5l2.7-0.7l0.2-0.1l0-1.7l0.4-1.1l0-1l-0.3-1l0-0.5l0.5-0.9
		l0.6-0.8l0.1-0.6l0.8-0.6l0.3-0.1l-0.1-0.9l-0.3-0.2l-1.4-3.8l-0.3-0.3l-0.4-0.5l-0.4-0.3l-0.6-1.3l0-0.5l0.2-0.5l0.3-0.3l-0.2-0.5
		l-0.9-0.3l-1.9,0.1l-3,0.4l-0.6-0.2h-0.8l-0.6-0.1l-1.1,0.2l0,0.8l-0.1,0.6l-0.5,1.1l-0.1,0.3l-0.1,0.5l0.1,1.6l-0.4,0.6l-0.1,0.4
		l0.1,0.4l0.4,0.3l0.5,1.1l0,0.9l-0.1,2l0.1,0.4l-0.2,0.8l0,0.8l0.2,0.7l0.1,0.4l0.1,0.5l-0.3,0.5l-0.3,0.9v0.9l-0.3,1.3l0.1,0.9
		l-0.1,1.1l-0.2,0.5l-1,0.9l-0.3,0.2l-1.2,0.4l-0.1,0.3l-0.9,0.5l-1.3,0.4l-0.2,0.3l-0.3,1l-1.5,0.4l-0.1,0.3l-0.3,0.2l0.4,0.7
		l-0.9,0.3l-0.4-0.3l-0.7,0l0.2,0.5l0.1,1.3l-0.3,0.6l-0.2,1l-1.2,0.7v0.7h-0.6l-0.2,0l-0.5,0.2l-0.2,0.5l0.3,0.2l0,0.3l-0.3,0.2
		l-0.5-0.1l-0.7,0.2l0,0.5l-0.6,0.1l0.1,0.3l-0.2,0.2l-1.5,0.4l-0.3-0.1l-0.5,1.4l-0.7,0.2l-0.4-0.8l-0.3,0.1l-0.1,0.4l-0.6,0.1
		l-0.1-0.1l-0.6,0.8l-0.5,1.3h0.4l0.1,1.8l-0.5,0.7l-0.4,2.1l-0.6,0.7l-0.4,0.9l0,0.4l-0.9,0.9l-0.3,0.4l-0.4,0.4l-2.6,0.6l-1,0.2
		l-0.9-0.1l-0.4-0.4l-0.5-0.2l-0.9,0.2l-0.6,0.2l-0.1,0.5l-0.9,0.5l-0.8,0.3h-1l-0.6-0.2l-0.3-0.3l-0.8-1.2l-0.9,0.2l-0.1,0.5
		l0.1,0.4l0.3,0.3l1.2,1l0.1,0.4l-0.1,0.2l-0.7,0.6l-0.2,0.2l0.1,0.6l-0.1,0.2l0.1,0.3l-0.3,0.8v0.3l0.3,0.6l0.9,1.4l0.5,0.5
		l0.5,0.1l1-0.3l1.2-0.3l0.6,0.3l0.9,0.5l0.6,0l0.2,0.5l-0.3,0l-0.3-0.4l-0.6-0.1l-3.1,0.4l-1.1,0.2l-0.6-0.7l-1.2-0.1l-0.5-1.1
		l0-0.4l0.1-0.5l0-0.7l-0.1-0.3l-1.1-0.7l-0.1-0.3l0.2-0.6l0.1-0.6l-0.2-0.3l-0.3-0.1l-0.1,0.2l0,0.7l-0.5,0.7l-1,0.3l-0.1,0.1
		L99.1,84L99,84.3l-0.1,0l0,0.5l-0.3,0.5L98,85.8L97.5,86l-1.4,0.1L95.9,86l-0.7-1.1l-0.2-0.3l-0.7-0.2l-0.5,0.1l-0.1,0.2l0.1,0.4
		l0.3,0.4l0.4,0.2l0.3,2.4l-0.2,0.2l-0.1,0.4l-0.3,0.2v0.3l-0.6,1L92.6,92l0,0.5H93l0.5,0.4l0.2,1.4l-0.6,1l-0.3,1.1l-0.2,1.6v0.9
		l-0.3,0.8l-0.3,0.6l-0.3,1l-0.9,1.2l-1.1,0.1l-0.2,0.6l-0.9,0.1l-0.3-0.3l-1.2-1.2l-0.2,0.1l0,0.8l-0.9,0.6l-1.4,0l-0.3,0.2
		l0.1,0.4l1.4,0.3l-0.1,0.1l-1.1,0.1l-1.3,0.1l-0.5,0.2l0,0.3l0.2,0.4l0,0.7l-0.5,0.5l-0.9,0.1L82,108l0.4,0.3l0.1,0.7l-0.2,0.7
		l-0.2,0.7l-0.4,1.5l-0.4,0.4v0.4l-0.5,0.4l-1.6,0.3l-0.2,0.3l-0.2,0.7l-0.4,0.6l-0.4,0.4l-0.1,0.3l-0.9,0.6l-0.4-0.4l-2.2,0.2
		l-0.2,0.1l-0.1,0.3l0.1,1l-0.1,1l-0.3,0.8l-0.4,1l-0.7,1l-1.1,0.4l-0.4,0.6l-1.3,0.4l-0.6,0.7l-0.4,0.2l-0.3,0.4l-0.4,0.2L68,124
		l-0.9,0.4l-0.1,0.2l-0.1,0.3l-0.1,0.3l-0.4,0.5l-1.3,0.8l-0.1,0.3l-1.3,0.4l-0.9-0.3h-0.3l-0.7,0.3l-0.4,0.1l-0.1-0.1l-0.2-0.7
		l-0.1-0.1l-1,0.2l-0.7,0l0,0.1l0.2,0.8l0.1,0.6l-0.4,0.9l-1.9,2.4l-1.2,1.2l-0.5,0.5l0.1,0.7l0,0.4l-0.3,0.3L55,135l-0.2,0.3
		l0.2-0.9l0.2-0.4v-0.7l-0.1-0.1l-0.7-0.3l-0.7-0.3l-0.1-0.2l-0.6-0.1l-0.5-0.2l-0.2-0.4l-0.3-0.4l-0.4-0.8l0-0.4l0.3-0.7l-0.2-0.2
		l-0.2,0.1l-0.1,0.3l-0.3,0.3l-0.3-0.2l-0.5-0.4l-0.4-0.2l-1.1,0.3l-0.4,0.3l-0.5-0.1l-0.3,0.2l-0.8,0.1l-0.3-0.2h-0.4l-0.2,0.2
		l-1.2,0.3l-0.1,0.7l-0.5,0.3l-0.2,0.4l-1.1,0.2l-0.2-0.1l-0.3,0.2l-0.1,0.4h-0.6l-0.4,0.6l-0.8,0.1l-0.1-0.2l-0.4,0.1l0,0.8
		l-0.5,0.2l-0.2,0.2l-0.6,0.2l-0.2,0.4l-0.3,0.1l-0.2,0.4l-0.5,0.6l-0.4,0.1l-0.5-0.1l-1.2,0l-0.4,0.4l-0.3,0l-0.6-0.2h-0.4
		l-0.2,0.7l-0.9,0.6l-0.5,0.6l-0.1,0.2l-0.3,0.2l0,1.1l-0.1,0.3l-0.7,0.3l-0.1,0.2l-0.1,0.1l0,0.6l-0.6,0.2v0.4h0.3l0.1,0.4l0.3,0
		l0,1.5l0.3,0.7l-0.1,0.4l0.3,0.6l-0.1,0.4l0.5,1.1l-0.2,1l-1.6,0.7l-0.1,0.7l-0.5,0.4l-0.1,0.8l0.2,0.3l0.3,0.6l0.3,0.2l0.4,0
		L30.5,151.5z"/>
</g>
</svg>
